<?xml version="1.0" standalone="no"?><svg xmlns="http://www.w3.org/2000/svg" viewBox="0 0 1440 320"><path fill="#990000" fill-opacity="1" d="M0,192L26.7,197.3C53.3,203,107,213,160,224C213.3,235,267,245,320,208C373.3,171,427,85,480,42.7C533.3,0,587,0,640,48C693.3,96,747,192,800,240C853.3,288,907,288,960,261.3C1013.3,235,1067,181,1120,160C1173.3,139,1227,149,1280,154.7C1333.3,160,1387,160,1413,160L1440,160L1440,320L1413.3,320C1386.7,320,1333,320,1280,320C1226.7,320,1173,320,1120,320C1066.7,320,1013,320,960,320C906.7,320,853,320,800,320C746.7,320,693,320,640,320C586.7,320,533,320,480,320C426.7,320,373,320,320,320C266.7,320,213,320,160,320C106.7,320,53,320,27,320L0,320Z"></path></svg>