<svg width="156" height="156" viewBox="0 0 156 156" fill="none" xmlns="http://www.w3.org/2000/svg">
<g clip-path="url(#clip0)">
<path d="M52.4437 119.112C52.4042 118.918 52.3464 118.726 52.2704 118.541C52.1944 118.359 52.1002 118.182 51.9908 118.018C51.8814 117.851 51.7537 117.696 51.6139 117.556C51.4741 117.416 51.3191 117.289 51.152 117.179C50.9878 117.07 50.8115 116.976 50.6261 116.9C50.4438 116.824 50.2523 116.763 50.0578 116.726C49.6657 116.647 49.2615 116.647 48.8724 116.726C48.6779 116.763 48.4865 116.824 48.3011 116.9C48.1187 116.976 47.9424 117.07 47.7783 117.179C47.6111 117.289 47.4561 117.416 47.3163 117.556C47.1765 117.696 47.0488 117.851 46.9394 118.018C46.827 118.182 46.7358 118.359 46.6598 118.541C46.5838 118.726 46.523 118.918 46.4866 119.112C46.4471 119.307 46.4258 119.507 46.4258 119.705C46.4258 119.902 46.4471 120.103 46.4866 120.298C46.523 120.492 46.5838 120.684 46.6598 120.866C46.7358 121.051 46.827 121.228 46.9394 121.392C47.0488 121.559 47.1765 121.714 47.3163 121.854C47.4561 121.994 47.6111 122.121 47.7783 122.231C47.9424 122.34 48.1187 122.435 48.3011 122.511C48.4865 122.587 48.6779 122.647 48.8724 122.684C49.067 122.723 49.2676 122.745 49.4651 122.745C49.6627 122.745 49.8633 122.723 50.0578 122.684C50.2523 122.647 50.4438 122.587 50.6261 122.511C50.8115 122.435 50.9878 122.34 51.152 122.231C51.3191 122.121 51.4741 121.994 51.6139 121.854C51.7537 121.714 51.8814 121.559 51.9908 121.392C52.1002 121.228 52.1944 121.051 52.2704 120.866C52.3464 120.684 52.4042 120.492 52.4437 120.298C52.4832 120.103 52.5045 119.902 52.5045 119.705C52.5045 119.507 52.4832 119.307 52.4437 119.112Z" fill="#DDAB2A"/>
<path d="M139.807 120.048C139.796 120.018 139.783 119.988 139.771 119.958C136.973 113.412 130.412 110.993 122.648 113.645L101.474 119.5C100.249 115.793 97.1959 112.638 92.8782 111.036C92.8514 111.026 92.8247 111.016 92.7976 111.007L69.5221 103.107C67.5848 100.603 61.5165 94.1958 50.1545 94.1958C42.2143 94.1958 35.19 99.6429 31.1714 105.58H3.03934C1.36071 105.58 0 106.941 0 108.62V146.939C0 148.617 1.36071 149.978 3.03934 149.978H21.1103C22.7889 149.978 24.1497 148.617 24.1497 146.939V144.314H32.6242C34.3029 144.314 35.6636 142.954 35.6636 141.275V140.4C40.6037 140.831 42.2285 141.768 46.7657 144.385C50.2548 146.397 55.5284 149.438 65.0251 153.708C65.0692 153.727 65.1138 153.746 65.1585 153.764C66.9812 154.481 70.5442 155.607 74.937 155.607C77.9946 155.607 81.4548 155.061 85.0066 153.451L131.81 136.693C131.893 136.664 131.975 136.63 132.055 136.593C136.528 134.535 143.194 128.735 139.807 120.048ZM18.071 143.899H6.07867V111.659H18.071V143.899ZM29.5849 138.235H24.1497V111.659H29.5849V138.235ZM129.626 131.018L82.8444 147.768C82.8034 147.783 82.7478 147.805 82.7073 147.821C82.6663 147.838 82.6253 147.855 82.5849 147.874C76.0694 150.868 69.8762 149.076 67.449 148.132C58.2756 144.004 53.3796 141.181 49.8023 139.118C44.8287 136.25 42.4322 134.868 35.6636 134.309V109.83C38.5446 105.108 44.1315 100.274 50.1548 100.274C60.4843 100.274 64.8613 106.993 65.0333 107.264C65.4044 107.867 65.9749 108.322 66.6457 108.55L90.8008 116.748C94.6586 118.196 96.6974 121.5 95.7604 124.795C95.3279 126.316 94.3286 127.578 92.9469 128.348C91.577 129.111 89.9935 129.3 88.4842 128.882L61.2539 120.253C59.6528 119.746 57.9453 120.632 57.4383 122.232C56.931 123.832 57.8173 125.54 59.4175 126.048L86.6953 134.692C86.7241 134.701 86.753 134.71 86.7822 134.718C87.8712 135.028 88.9799 135.181 90.082 135.181C92.0995 135.181 94.0948 134.667 95.9057 133.658C98.7058 132.098 100.731 129.541 101.607 126.457C101.677 126.211 101.739 125.965 101.793 125.719L124.613 119.397C127.909 118.271 132.235 117.865 134.162 122.302C136.156 127.51 130.974 130.375 129.626 131.018Z" fill="#DDAB2A"/>
<path d="M109.13 39.9803C109.091 39.7858 109.033 39.5943 108.954 39.4089C108.878 39.2265 108.787 39.0503 108.674 38.8861C108.565 38.719 108.437 38.564 108.298 38.4242C108.158 38.2844 108.003 38.1567 107.836 38.0473C107.671 37.9379 107.495 37.8436 107.313 37.7677C107.127 37.6917 106.936 37.6309 106.744 37.5944C106.352 37.5154 105.948 37.5154 105.556 37.5944C105.362 37.6309 105.17 37.6917 104.988 37.7677C104.802 37.8436 104.626 37.9379 104.462 38.0473C104.295 38.1567 104.14 38.2844 104 38.4242C103.86 38.564 103.732 38.719 103.623 38.8861C103.514 39.0503 103.419 39.2265 103.343 39.4089C103.267 39.5943 103.207 39.7858 103.17 39.9803C103.131 40.1748 103.109 40.3754 103.109 40.573C103.109 40.7705 103.131 40.9711 103.17 41.1656C103.207 41.3602 103.267 41.5516 103.343 41.734C103.419 41.9194 103.514 42.0957 103.623 42.2598C103.732 42.427 103.86 42.582 104 42.7218C104.14 42.8616 104.295 42.9892 104.462 43.0987C104.626 43.2081 104.802 43.3023 104.988 43.3783C105.17 43.4543 105.362 43.512 105.556 43.5515C105.751 43.591 105.951 43.6123 106.149 43.6123C106.346 43.6123 106.547 43.591 106.744 43.5515C106.936 43.512 107.127 43.4543 107.313 43.3783C107.495 43.3023 107.671 43.2081 107.836 43.0987C108.003 42.9892 108.158 42.8616 108.298 42.7218C108.437 42.582 108.565 42.427 108.674 42.2598C108.787 42.0957 108.878 41.9194 108.954 41.734C109.033 41.5516 109.091 41.3602 109.13 41.1656C109.17 40.9711 109.188 40.7705 109.188 40.573C109.188 40.3754 109.17 40.1748 109.13 39.9803Z" fill="#DDAB2A"/>
<path d="M152.575 10.3006H134.504C132.825 10.3006 131.465 11.6613 131.465 13.34V15.9641H122.99C121.311 15.9641 119.951 17.3248 119.951 19.0035V19.8782C115.01 19.4469 113.386 18.5102 108.849 15.8939C105.36 13.8819 100.086 10.841 90.5891 6.57106C90.545 6.551 90.5007 6.53246 90.4554 6.51483C87.3641 5.29849 79.2621 2.90532 70.6088 6.82697L58.3785 11.206L48.0694 0.897226C46.8825 -0.289635 44.958 -0.289635 43.7712 0.897226L9.92572 34.7424C8.83095 35.8374 8.62093 37.7361 9.92572 39.0409L67.7603 96.8755C68.6858 97.8013 70.8529 98.0812 72.0589 96.8755L102.958 65.9764C103.762 66.0457 104.595 66.0831 105.459 66.0831C113.4 66.0831 120.424 60.636 124.442 54.699H152.575C154.253 54.699 155.614 53.3382 155.614 51.6596V13.34C155.614 11.6613 154.253 10.3006 152.575 10.3006ZM45.92 7.34457L52.8472 14.2718C50.7881 15.5453 48.4074 16.2267 45.92 16.2267C43.4323 16.2267 41.0519 15.5456 38.9927 14.2718L45.92 7.34457ZM23.3006 43.819L16.3734 36.8915L23.3006 29.9642C24.5741 32.0234 25.2555 34.4041 25.2555 36.8915C25.2555 39.3789 24.5744 41.7596 23.3006 43.819ZM69.9098 90.4279L62.9837 83.5018C67.2124 80.8923 72.6066 80.8923 76.8355 83.5018L69.9098 90.4279ZM81.2146 79.1234C74.4983 74.2513 65.3213 74.2513 58.6049 79.1234L27.6794 48.1975C30.0528 44.9333 31.3342 41.0122 31.3342 36.8915C31.3342 32.7704 30.0531 28.8497 27.6794 25.5855L34.6143 18.6509C37.8785 21.0243 41.7992 22.3057 45.9203 22.3057C50.0413 22.3057 53.9621 21.0243 57.2263 18.6509L63.8001 25.2247C62.3816 25.4341 60.9984 25.9015 59.7085 26.6203C57.5299 27.8343 55.8206 29.6521 54.7562 31.8514C51.3279 32.4863 48.1539 34.1461 45.6641 36.6356C38.9091 43.3908 38.9091 54.382 45.6644 61.1372C49.0417 64.5145 53.4782 66.2035 57.915 66.2035C62.3515 66.2035 66.7884 64.5148 70.166 61.1372C72.3634 58.9397 73.9028 56.239 74.6739 53.2957L84.9359 56.7785C83.7807 62.1301 84.9639 67.7602 88.1555 72.1824L81.2146 79.1234ZM62.736 49.2427C62.7628 49.2525 62.7895 49.2622 62.8166 49.2713L68.894 51.3341C68.4351 53.4054 67.3965 55.3099 65.8677 56.839C61.4826 61.2235 54.3474 61.2241 49.9629 56.839C45.5777 52.4541 45.5777 45.3193 49.9629 40.9341C51.0206 39.8758 52.2688 39.0488 53.629 38.488C54.19 43.1571 57.5518 47.3188 62.736 49.2427ZM92.5349 67.8027C91.3617 65.891 90.6979 63.7091 90.5931 61.4821C92.0489 62.5347 93.8281 63.5659 95.9532 64.3844L92.5349 67.8027ZM119.95 50.4478C117.07 55.1704 111.483 60.0038 105.459 60.0038C104.332 60.0038 103.276 59.9236 102.289 59.7807C102.285 59.7801 102.281 59.7795 102.277 59.7789C95.7131 58.8255 92.1823 55.095 91.0186 53.6179C90.9566 53.5267 90.6924 53.1811 90.6532 53.1237C90.2992 52.4909 89.7186 51.9821 88.9783 51.7307L64.8131 43.5291C60.9568 42.0818 58.9183 38.7795 59.8526 35.4861C59.8532 35.484 59.8538 35.4818 59.8544 35.4797C59.8553 35.4773 59.8559 35.4745 59.8565 35.4721C60.2909 33.9555 61.2884 32.6975 62.667 31.9295C64.0366 31.1663 65.6197 30.9769 67.1297 31.3955L94.36 40.0244C95.9605 40.5323 97.6686 39.6454 98.1756 38.0452C98.6826 36.445 97.7966 34.7369 96.1964 34.2296L74.5396 27.3668L74.3505 27.1778C74.3487 27.1759 74.3469 27.1738 74.3448 27.172L63.1327 15.9599L72.7698 12.509C72.8023 12.4972 72.8424 12.4823 72.8746 12.4692C72.8828 12.4659 72.8987 12.4598 72.9066 12.4564C72.9479 12.4397 72.9886 12.4221 73.029 12.4035C79.5442 9.40919 85.7371 11.2015 88.1646 12.1455C97.3383 16.2732 102.235 19.0965 105.812 21.1593C110.785 24.0275 113.182 25.4095 119.95 25.9684V50.4478ZM131.465 48.6197H126.029V22.0428H131.465V48.6197ZM149.536 48.6197H137.543V16.3793H149.536V48.6197Z" fill="#DDAB2A"/>
</g>
<defs>
<clipPath id="clip0">
<rect width="155.614" height="155.614" fill="white"/>
</clipPath>
</defs>
</svg>
