<svg width="157" height="149" viewBox="0 0 157 149" fill="none" xmlns="http://www.w3.org/2000/svg">
<path d="M155.845 83.9067C155.459 83.1348 154.494 82.7488 153.722 82.5558C149.284 82.5558 111.075 81.012 111.075 36.6278C111.075 35.277 109.917 34.1191 108.566 34.1191C107.215 34.1191 106.057 35.277 106.057 36.6278C106.057 81.012 67.8482 82.5558 63.6027 82.5558C63.0238 82.5558 62.4449 82.7488 62.0589 83.1348C61.673 83.3278 61.48 83.7137 61.287 83.9067C60.9011 84.6786 60.9011 85.6434 61.287 86.4153C61.673 87.1872 62.6378 87.7662 63.6027 87.7662C63.6027 87.7662 63.6027 87.7662 63.7957 87.7662C68.2341 87.7662 106.25 89.31 106.25 133.694C106.25 135.045 107.408 136.203 108.759 136.203C110.11 136.203 111.268 135.045 111.268 133.694C111.268 89.5029 149.284 87.7662 153.722 87.7662C154.687 87.7662 155.459 87.1872 156.038 86.4153C156.424 85.6434 156.424 84.6786 155.845 83.9067ZM108.566 114.783C102.97 96.45 89.2684 88.5381 78.4618 85.0645C89.2684 81.591 102.97 73.679 108.566 55.3464C114.162 73.679 127.863 81.591 138.67 85.0645C127.863 88.5381 114.162 96.45 108.566 114.783Z" fill="#DDAB2A"/>
<path d="M76.725 33.7332C78.0758 33.7332 79.2337 32.5754 79.2337 31.0316C79.2337 29.6808 78.0758 28.5229 76.725 28.5229C74.4093 28.5229 53.568 27.751 53.568 3.43616C53.568 2.08534 52.4102 0.92749 51.0593 0.92749C49.7085 0.92749 48.5507 2.08534 48.5507 3.43616C48.5507 27.751 27.7094 28.5229 25.3937 28.5229C25.2007 28.5229 25.2007 28.5229 25.2007 28.5229C23.8499 28.7159 22.885 29.6808 22.885 31.0316C22.885 32.3824 24.0429 33.5403 25.3937 33.5403C27.9024 33.5403 48.5507 34.3122 48.5507 58.627C48.5507 59.9778 49.7085 61.1357 51.0593 61.1357C52.2172 61.3286 53.375 60.1708 53.375 58.82C53.375 34.5051 74.2163 33.7332 76.532 33.7332H76.725ZM50.8664 44.7328C47.7788 37.3998 42.1825 33.3473 36.9722 31.0316C42.5684 28.7159 47.7788 24.2775 50.8664 17.3304C53.954 24.6634 59.5502 28.7159 64.7606 31.0316C59.1643 33.3473 53.954 37.7857 50.8664 44.7328Z" fill="#DDAB2A"/>
<path d="M54.5329 115.555C52.2172 115.555 31.3759 114.783 31.3759 90.4679C31.3759 89.1171 30.218 87.9592 28.8672 87.9592C27.5164 87.9592 26.3585 89.1171 26.3585 90.4679C26.3585 114.783 5.51725 115.555 3.20155 115.555C3.00857 115.555 3.00857 115.555 3.00857 115.555C1.65775 115.748 0.692871 116.712 0.692871 118.063C0.692871 119.414 1.85072 120.572 3.20155 120.572C5.71022 120.572 26.3585 121.344 26.3585 145.659C26.3585 147.01 27.5164 148.167 28.8672 148.167C30.0251 148.553 31.1829 147.396 31.1829 145.852C31.1829 121.537 52.0242 120.765 54.3399 120.765H54.5329C55.8837 120.765 57.0416 119.607 57.0416 118.063C57.0416 116.712 55.8837 115.555 54.5329 115.555ZM28.6742 131.958C25.3937 124.624 19.9904 120.572 14.78 118.256C20.3763 115.941 25.5866 111.502 28.6742 104.555C31.7618 111.888 37.3581 115.941 42.5684 118.256C36.9722 120.572 31.7618 125.01 28.6742 131.958Z" fill="#DDAB2A"/>
</svg>
