<svg width="156" height="156" viewBox="0 0 156 156" fill="none" xmlns="http://www.w3.org/2000/svg">
<g clip-path="url(#clip0)">
<path d="M155.975 68.827C155.842 67.5669 155.194 66.4177 154.184 65.6527L141.858 56.3156L146.343 41.5171C146.71 40.3044 146.559 38.9938 145.926 37.8966C145.292 36.7994 144.233 36.0134 142.999 35.7253L127.94 32.2091L126.017 16.8659C125.86 15.6089 125.189 14.4727 124.164 13.7281C123.139 12.9832 121.852 12.6966 120.607 12.9348L105.42 15.8477L97.4227 2.61295C96.7674 1.52882 95.6924 0.763822 94.4533 0.500616C93.2138 0.237105 91.9206 0.498488 90.8814 1.22246L78.1928 10.0608L65.5039 1.22246C64.4641 0.498488 63.1712 0.237105 61.9318 0.500616C60.6923 0.764126 59.6176 1.52852 58.9623 2.61326L50.9655 15.8484L35.7786 12.9355C34.5346 12.6975 33.2468 12.9838 32.2216 13.7287C31.1968 14.4737 30.5257 15.6092 30.3682 16.8665L28.4459 32.2097L13.3866 35.7259C12.1526 36.014 11.0934 36.8 10.4597 37.8972C9.82599 38.9947 9.67523 40.305 10.0427 41.5174L14.5269 56.3162L2.20151 65.653C1.19154 66.418 0.54355 67.5669 0.411035 68.827C0.278824 70.0871 0.673937 71.3457 1.50276 72.304L11.618 83.9997L4.15519 97.543C3.54398 98.6526 3.41907 99.9659 3.81053 101.171C4.202 102.376 5.0749 103.365 6.22194 103.903L20.2199 110.473L18.9103 125.881C18.803 127.144 19.223 128.394 20.071 129.336C20.9186 130.278 22.1186 130.826 23.3851 130.851L38.8462 131.16L43.9161 145.768C44.3316 146.965 45.2239 147.937 46.3813 148.452C47.539 148.967 48.8581 148.98 50.0255 148.488L64.2754 142.482L74.8495 153.765C75.7158 154.689 76.9263 155.214 78.1934 155.214C79.4605 155.214 80.6708 154.689 81.5373 153.765L92.1115 142.482L106.36 148.488C107.528 148.98 108.847 148.967 110.005 148.452C111.162 147.936 112.055 146.965 112.47 145.768L117.541 131.16L133.001 130.851C134.268 130.826 135.468 130.278 136.315 129.336C137.163 128.394 137.583 127.144 137.476 125.881L136.166 110.473L150.165 103.903C151.312 103.365 152.185 102.376 152.577 101.171C152.968 99.9662 152.843 98.6526 152.232 97.5427L144.768 83.9997L154.884 72.304C155.712 71.3457 156.107 70.0871 155.975 68.827ZM135.199 85.6279L141.843 97.684L129.382 103.532C127.645 104.347 126.6 106.158 126.763 108.069L127.929 121.785L114.166 122.059C112.248 122.098 110.557 123.326 109.928 125.138L105.414 138.143L92.7293 132.796C90.9617 132.05 88.9171 132.485 87.6056 133.885L78.1928 143.928L68.78 133.884C67.8952 132.94 66.6768 132.435 65.4349 132.435C64.8361 132.435 64.2313 132.552 63.656 132.795L50.971 138.142L46.4576 125.138C45.8284 123.326 44.1377 122.097 42.2195 122.059L28.4559 121.784L29.6218 108.069C29.7844 106.157 28.7392 104.347 27.0028 103.532L14.5421 97.6831L21.1855 85.6267C22.1113 83.9465 21.8925 81.8679 20.6381 80.4169L11.6335 70.0057L22.6061 61.694C24.1352 60.5357 24.781 58.548 24.2248 56.7119L20.233 43.5379L33.6386 40.408C35.5065 39.9719 36.9049 38.4182 37.1438 36.5149L38.855 22.8568L52.3743 25.4496C54.258 25.8113 56.1677 24.9606 57.1597 23.3187L64.2784 11.5374L75.5741 19.405C77.1482 20.5013 79.2386 20.5013 80.8124 19.405L92.1075 11.5374L99.2268 23.319C100.219 24.9606 102.127 25.8113 104.012 25.4496L117.532 22.8568L119.243 36.5149C119.481 38.4182 120.88 39.9719 122.748 40.408L136.154 43.5379L132.161 56.7116C131.605 58.5474 132.25 60.5357 133.78 61.694L144.753 70.0057L135.747 80.4169C134.492 81.8685 134.273 83.9477 135.199 85.6279Z" fill="#DDAB2A"/>
<path d="M78.1927 33.9562C54.013 33.9562 34.3418 53.6277 34.3418 77.8068C34.3418 101.986 54.0136 121.658 78.1927 121.658C102.372 121.658 122.044 101.986 122.044 77.8071C122.044 53.628 102.372 33.9562 78.1927 33.9562ZM78.1927 112.493C59.0671 112.493 43.5072 96.9328 43.5072 77.8071C43.5072 58.6815 59.0671 43.1216 78.1927 43.1216C97.3184 43.1216 112.878 58.6815 112.878 77.8071C112.878 96.9328 97.3184 112.493 78.1927 112.493Z" fill="#DDAB2A"/>
<path d="M96.1597 64.7497C94.3695 62.9599 91.4679 62.9599 89.6783 64.7497L73.2848 81.143L66.7079 74.5665C64.9184 72.7766 62.0167 72.7772 60.2272 74.5665C58.4379 76.3561 58.4379 79.2577 60.2275 81.0473L70.0448 90.8643C70.9396 91.7591 72.1125 92.2065 73.2851 92.2065C74.4579 92.2065 75.6308 91.7588 76.5253 90.8643L96.1594 71.2305C97.949 69.4413 97.949 66.5393 96.1597 64.7497Z" fill="#DDAB2A"/>
</g>
<defs>
<clipPath id="clip0">
<rect width="155.614" height="155.614" fill="white" transform="translate(0.385986)"/>
</clipPath>
</defs>
</svg>
