<svg width="179" height="186" viewBox="0 0 179 186" fill="none" xmlns="http://www.w3.org/2000/svg">
<rect width="179" height="186" fill="#DDAB2A"/>
<path d="M126.868 69.1479L116.682 53.074C116.256 52.4014 115.526 52 114.73 52H72.8571C72.2454 52 71.7496 52.4957 71.7496 53.1075C71.7496 53.7193 72.2454 54.215 72.8571 54.215H87.0884L74.1528 68.6552L65.4218 54.215H68.4271C69.0387 54.215 69.5346 53.7193 69.5346 53.1075C69.5346 52.4957 69.0387 52 68.4271 52H64.1201C63.3241 52 62.5943 52.4015 62.168 53.074L51.9818 69.1479C51.4316 70.0159 51.5255 71.1575 52.2099 71.9243L87.7011 111.677C88.1391 112.168 88.7674 112.449 89.4249 112.449H89.4251C90.0828 112.449 90.7111 112.168 91.1491 111.677L109.749 90.8433C110.157 90.387 110.117 89.687 109.661 89.2795C109.205 88.8721 108.504 88.9119 108.097 89.3681L91.9686 107.434L105.696 71.4522H124.092L110.815 86.3245C110.407 86.7808 110.447 87.4808 110.903 87.8882C111.114 88.0768 111.378 88.1696 111.64 88.1696C111.945 88.1696 112.248 88.0446 112.467 87.7996L126.64 71.9242C127.325 71.1576 127.418 70.0159 126.868 69.1479ZM124.303 69.2372H106.937L115.416 55.2142L124.303 69.2372ZM86.8814 107.434L54.7577 71.4522H73.1537L86.8814 107.434ZM89.4251 107.887L75.5246 71.4522H103.326L89.4251 107.887ZM76.6051 69.2372L89.4251 54.9261L102.245 69.2372H76.6051ZM113.432 54.215L104.699 68.6574L91.7617 54.215H113.432ZM63.4359 55.2114L71.9163 69.2371H54.5475L63.4359 55.2114Z" fill="#312F2F"/>
<path d="M55.8467 117.855H57.543V126.917C57.543 128.141 57.1738 129.099 56.4355 129.791C55.7031 130.482 54.7246 130.828 53.5 130.828C52.2285 130.828 51.2383 130.502 50.5293 129.852C49.8203 129.202 49.4658 128.291 49.4658 127.119H51.1533C51.1533 127.851 51.3525 128.422 51.751 128.833C52.1553 129.243 52.7383 129.448 53.5 129.448C54.1973 129.448 54.7598 129.228 55.1875 128.789C55.6211 128.349 55.8408 127.734 55.8467 126.943V117.855ZM67.6504 124.737H62.1045V129.272H68.5469V130.652H60.417V117.855H68.459V119.244H62.1045V123.357H67.6504V124.737ZM73.4072 126.618L73.6533 128.305L74.0137 126.785L76.5449 117.855H77.9687L80.4385 126.785L80.79 128.332L81.0625 126.609L83.0488 117.855H84.7451L81.6426 130.652H80.1045L77.4678 121.327L77.2656 120.351L77.0635 121.327L74.3301 130.652H72.792L69.6982 117.855H71.3857L73.4072 126.618ZM93.8594 124.737H88.3135V129.272H94.7559V130.652H86.626V117.855H94.668V119.244H88.3135V123.357H93.8594V124.737ZM101.55 125.475H98.5439V130.652H96.8477V117.855H101.084C102.525 117.855 103.633 118.183 104.406 118.839C105.186 119.496 105.575 120.451 105.575 121.705C105.575 122.501 105.358 123.196 104.925 123.788C104.497 124.379 103.899 124.822 103.132 125.115L106.138 130.546V130.652H104.327L101.55 125.475ZM98.5439 124.095H101.137C101.975 124.095 102.64 123.878 103.132 123.445C103.63 123.011 103.879 122.431 103.879 121.705C103.879 120.914 103.642 120.307 103.167 119.885C102.698 119.463 102.019 119.25 101.128 119.244H98.5439V124.095ZM111.2 124.702L109.636 126.328V130.652H107.948V117.855H109.636V124.183L115.322 117.855H117.361L112.325 123.506L117.757 130.652H115.735L111.2 124.702ZM123.136 124.28L126.476 117.855H128.392L123.979 125.879V130.652H122.292V125.879L117.88 117.855H119.813L123.136 124.28Z" fill="#312F2F"/>
</svg>
